<?xml version="1.0" encoding="utf-8"?>
<!-- Generator: Adobe Illustrator 21.0.2, SVG Export Plug-In . SVG Version: 6.00 Build 0)  -->
<svg version="1.1" id="Layer_1" xmlns="http://www.w3.org/2000/svg" xmlns:xlink="http://www.w3.org/1999/xlink" x="0px" y="0px"
	 width="190.9px" height="100px" viewBox="0 0 190.9 100" enable-background="new 0 0 190.9 100" xml:space="preserve">
<g>
	<rect y="61.7" width="190.9" height="4.9"/>
	<g>
		<rect y="14.9" width="190.9" height="4.9"/>
	</g>
	<g>
		<path d="M9.9,76.3h3.4c2,0,3.3,1.1,3.3,2.9l0,0c0,1.9-1.6,2.9-3.5,2.9h-1.7v2.8H9.9V76.3z M13.2,80.8c1.1,0,1.9-0.6,1.9-1.5l0,0
			c0-1-0.7-1.5-1.9-1.5h-1.8v3.1L13.2,80.8L13.2,80.8z"/>
		<path d="M20.3,76.2h1.4l3.8,8.7h-1.6L23,82.8h-4l-0.9,2.1h-1.6L20.3,76.2z M22.5,81.5L21,78l-1.5,3.5H22.5z"/>
		<path d="M26.4,83.7l0.9-1.1c0.8,0.7,1.7,1.1,2.7,1.1c0.9,0,1.5-0.4,1.5-1.1l0,0c0-0.6-0.3-0.9-1.9-1.3c-1.8-0.4-2.9-1-2.9-2.6l0,0
			c0-1.5,1.2-2.5,2.9-2.5c1.3,0,2.3,0.4,3.1,1.1L32,78.4c-0.8-0.6-1.6-0.9-2.3-0.9c-0.9,0-1.4,0.5-1.4,1l0,0c0,0.7,0.4,1,2.1,1.4
			c1.8,0.4,2.8,1.1,2.8,2.5l0,0c0,1.6-1.3,2.6-3.1,2.6C28.6,85,27.4,84.6,26.4,83.7z"/>
		<path d="M34.2,83.7l0.9-1.1c0.8,0.7,1.7,1.1,2.7,1.1c0.9,0,1.5-0.4,1.5-1.1l0,0c0-0.6-0.3-0.9-1.9-1.3c-1.8-0.4-2.9-1-2.9-2.6l0,0
			c0-1.5,1.2-2.5,2.9-2.5c1.3,0,2.3,0.4,3.1,1.1l-0.8,1.1c-0.7-0.6-1.5-0.9-2.3-0.9c-0.9,0-1.4,0.5-1.4,1l0,0c0,0.7,0.4,1,2.1,1.4
			c1.8,0.4,2.8,1.1,2.8,2.5l0,0c0,1.6-1.3,2.6-3.1,2.6C36.4,85,35.2,84.6,34.2,83.7z"/>
		<path d="M42.7,76.3h1.5v8.6h-1.5V76.3z"/>
		<path d="M45.5,76.3h1.7l2.6,6.6l2.6-6.6H54L50.4,85h-1.3L45.5,76.3z"/>
		<path d="M55.4,76.3h6.4v1.4h-4.9v2.2h4.3v1.4h-4.3v2.3h4.9V85h-6.5L55.4,76.3L55.4,76.3z"/>
		<path d="M67.2,76.3h6.4v1.4h-4.9v2.4H73v1.4h-4.3V85h-1.5V76.3z"/>
		<path d="M75.1,76.3h1.5v8.6h-1.5V76.3z"/>
		<path d="M78.9,76.3h3.8c1.1,0,1.9,0.3,2.5,0.9c0.5,0.5,0.7,1.1,0.7,1.9l0,0c0,1.4-0.9,2.3-2,2.6l2.3,3.3h-1.8l-2.1-3h-1.9v3h-1.5
			V76.3z M82.6,80.6c1.1,0,1.8-0.6,1.8-1.4l0,0c0-0.9-0.7-1.4-1.8-1.4h-2.2v2.9L82.6,80.6L82.6,80.6z"/>
		<path d="M87.8,76.3h6.4v1.4h-4.9v2.2h4.3v1.4h-4.3v2.3h4.9V85h-6.5L87.8,76.3L87.8,76.3z"/>
		<path d="M99.6,76.3h3.4c2,0,3.3,1.1,3.3,2.9l0,0c0,1.9-1.6,2.9-3.5,2.9h-1.7v2.8h-1.5C99.6,84.9,99.6,76.3,99.6,76.3z M102.9,80.8
			c1.1,0,1.9-0.6,1.9-1.5l0,0c0-1-0.7-1.5-1.9-1.5h-1.8v3.1L102.9,80.8L102.9,80.8z"/>
		<path d="M107.8,76.3h3.8c1.1,0,1.9,0.3,2.5,0.9c0.5,0.5,0.7,1.1,0.7,1.9l0,0c0,1.4-0.9,2.3-2,2.6l2.3,3.3h-1.8l-2.1-3h-1.9v3h-1.5
			V76.3z M111.5,80.6c1.1,0,1.8-0.6,1.8-1.4l0,0c0-0.9-0.7-1.4-1.8-1.4h-2.2v2.9L111.5,80.6L111.5,80.6z"/>
		<path d="M116.1,80.6L116.1,80.6c0-2.5,1.9-4.5,4.5-4.5s4.5,2,4.5,4.4l0,0c0,2.4-1.9,4.5-4.5,4.5C117.9,85.1,116.1,83.1,116.1,80.6
			z M123.5,80.6L123.5,80.6c0-1.7-1.2-3.1-2.9-3.1c-1.7,0-2.9,1.4-2.9,3l0,0c0,1.7,1.2,3.1,2.9,3.1
			C122.3,83.7,123.5,82.3,123.5,80.6z"/>
		<path d="M128.6,77.7h-2.7v-1.4h7v1.4h-2.7v7.2h-1.5v-7.2H128.6z"/>
		<path d="M134.3,76.3h6.4v1.4h-4.9v2.2h4.3v1.4h-4.3v2.3h4.9V85h-6.5v-8.7H134.3z"/>
		<path d="M141.9,80.6L141.9,80.6c0-2.5,1.8-4.5,4.4-4.5c1.6,0,2.6,0.6,3.4,1.3l-1,1.1c-0.7-0.6-1.4-1.1-2.4-1.1
			c-1.6,0-2.8,1.4-2.8,3l0,0c0,1.7,1.2,3.1,2.8,3.1c1.1,0,1.7-0.4,2.5-1.1l1,1c-0.9,0.9-1.9,1.5-3.5,1.5
			C143.8,85.1,141.9,83.1,141.9,80.6z"/>
		<path d="M153.6,77.7h-2.7v-1.4h7v1.4h-2.7v7.2h-1.5v-7.2H153.6z"/>
		<path d="M159.3,76.3h1.5v8.6h-1.5V76.3z"/>
		<path d="M162.6,80.6L162.6,80.6c0-2.5,1.9-4.5,4.5-4.5s4.5,2,4.5,4.4l0,0c0,2.4-1.9,4.5-4.5,4.5C164.5,85.1,162.6,83.1,162.6,80.6
			z M170.1,80.6L170.1,80.6c0-1.7-1.2-3.1-2.9-3.1s-2.9,1.4-2.9,3l0,0c0,1.7,1.2,3.1,2.9,3.1C168.9,83.7,170.1,82.3,170.1,80.6z"/>
		<path d="M173.5,76.3h1.4l4.6,6v-6h1.5v8.6h-1.3l-4.8-6.1v6.1h-1.5v-8.6H173.5z"/>
	</g>
	<g>
		<g>
			<path fill="#B1132F" d="M9.9,29.6h10.5c3.4,0,5.7,0.9,7.2,2.4c1.3,1.3,2,3,2,5.2v0.1c0,3.4-1.8,5.7-4.6,6.8l5.3,7.7h-7.1
				l-4.5-6.7H16v6.7H9.9V29.6z M20.1,40.3c2.1,0,3.3-1,3.3-2.6v-0.1c0-1.8-1.3-2.7-3.3-2.7H16v5.4C16,40.3,20.1,40.3,20.1,40.3z"/>
			<path fill="#B1132F" d="M32.7,29.6h17.8v5.2H38.8v3.4h10.6V43H38.8v3.5h11.9v5.2h-18C32.7,51.7,32.7,29.6,32.7,29.6z"/>
			<path fill="#B1132F" d="M54.2,29.6h8.6c7.9,0,12.5,4.6,12.5,11v0.1c0,6.4-4.7,11.2-12.6,11.2h-8.5C54.2,51.9,54.2,29.6,54.2,29.6
				z M60.3,35.1v11.3h2.5c3.7,0,6.1-2,6.1-5.6v-0.1c0-3.6-2.4-5.6-6.1-5.6H60.3z"/>
			<path d="M77.3,40.8L77.3,40.8c0-6.5,4.9-11.6,11.7-11.6c4.5,0,7.4,1.9,9.4,4.6l-4.6,3.6c-1.3-1.6-2.7-2.6-4.8-2.6
				c-3.1,0-5.3,2.7-5.3,5.9v0.1c0,3.3,2.2,5.9,5.3,5.9c2.3,0,3.7-1.1,5-2.7l4.6,3.3c-2.1,2.9-4.9,5-9.8,5
				C82.4,52.3,77.3,47.4,77.3,40.8z"/>
			<path d="M100.9,29.6h10.5c3.4,0,5.7,0.9,7.2,2.4c1.3,1.3,2,3,2,5.2v0.1c0,3.4-1.8,5.7-4.6,6.8l5.3,7.7h-7.1l-4.5-6.7H107v6.7
				h-6.1V29.6z M111.1,40.3c2.1,0,3.3-1,3.3-2.6v-0.1c0-1.8-1.3-2.7-3.3-2.7H107v5.4C107,40.3,111.1,40.3,111.1,40.3z"/>
			<path d="M122.4,40.8L122.4,40.8c0-6.4,5.1-11.6,12-11.6c6.8,0,11.9,5.1,11.9,11.5v0.1c0,6.4-5.1,11.5-12,11.5
				C127.5,52.3,122.4,47.2,122.4,40.8z M140,40.8L140,40.8c0-3.3-2.3-6.1-5.7-6.1s-5.6,2.7-5.6,5.9v0.1c0,3.2,2.3,6,5.7,6
				C137.8,46.7,140,44,140,40.8z"/>
			<path d="M146.5,29.6h6.5l3.9,12.8l4.3-12.9h5.3l4.3,12.9l3.9-12.8h6.4l-7.4,22.3h-5.4l-4.4-12.8l-4.5,12.8H154L146.5,29.6z"/>
		</g>
		<g>
			<path d="M176.5,49.8h-0.8v-0.4h2.1v0.4H177V52h-0.5V49.8z M180.6,49.8L180.6,49.8l-0.9,2.2h-0.3l-0.9-2.2l0,0V52H178v-2.6h0.7
				l0.7,1.9l0.7-1.9h0.7V52h-0.5v-2.2H180.6z"/>
		</g>
	</g>
</g>
</svg>
